<?xml version="1.0" encoding="utf-8"?>
<!-- Generator: Adobe Illustrator 16.0.0, SVG Export Plug-In . SVG Version: 6.00 Build 0)  -->
<!DOCTYPE svg PUBLIC "-//W3C//DTD SVG 1.1//EN" "http://www.w3.org/Graphics/SVG/1.1/DTD/svg11.dtd">
<svg version="1.1" id="Layer_1" xmlns="http://www.w3.org/2000/svg" xmlns:xlink="http://www.w3.org/1999/xlink" x="0px" y="0px"
	 width="63.999px" height="63.999px" viewBox="5.5 -3.5 63.999 63.999" enable-background="new 5.5 -3.5 63.999 63.999"
	 xml:space="preserve">
<path fill="#222222" d="M37.441-3.5c8.951,0,16.572,3.125,22.856,9.372c3.009,3.009,5.295,6.448,6.856,10.314
	c1.562,3.867,2.345,7.971,2.345,12.314c0,4.381-0.772,8.486-2.313,12.313c-1.543,3.828-3.82,7.211-6.828,10.144
	c-3.123,3.085-6.666,5.448-10.629,7.086c-3.961,1.638-8.058,2.457-12.285,2.457c-4.229,0-8.276-0.808-12.144-2.429
	c-3.866-1.618-7.333-3.961-10.4-7.027s-5.4-6.523-7-10.372C6.3,36.823,5.5,32.768,5.5,28.5c0-4.229,0.809-8.295,2.428-12.2
	c1.619-3.905,3.972-7.4,7.057-10.486C21.08-0.394,28.565-3.5,37.441-3.5z M37.557,2.272c-7.313,0-13.467,2.553-18.458,7.657
	c-2.515,2.553-4.448,5.419-5.8,8.6c-1.354,3.181-2.029,6.505-2.029,9.972c0,3.429,0.675,6.733,2.029,9.913
	c1.353,3.184,3.285,6.021,5.8,8.516c2.514,2.496,5.351,4.399,8.515,5.715c3.161,1.314,6.476,1.972,9.943,1.972
	c3.428,0,6.75-0.665,9.973-1.999c3.22-1.335,6.121-3.258,8.714-5.771c4.989-4.876,7.483-10.99,7.483-18.344
	c0-3.543-0.647-6.895-1.942-10.057c-1.293-3.162-3.181-5.98-5.654-8.458C50.984,4.844,44.795,2.272,37.557,2.272z M37.156,23.187
	l-4.287,2.229c-0.458-0.951-1.019-1.619-1.685-2c-0.667-0.38-1.286-0.571-1.858-0.571c-2.856,0-4.286,1.885-4.286,5.657
	c0,1.714,0.362,3.084,1.085,4.113c0.724,1.029,1.791,1.544,3.201,1.544c1.867,0,3.181-0.915,3.943-2.743l3.942,2
	c-0.838,1.563-2,2.791-3.485,3.686c-1.484,0.896-3.124,1.344-4.915,1.344c-2.857,0-5.163-0.875-6.915-2.629
	c-1.752-1.752-2.628-4.19-2.628-7.313c0-3.048,0.886-5.466,2.657-7.257c1.771-1.79,4.009-2.686,6.715-2.686
	C32.604,18.558,35.441,20.101,37.156,23.187z M55.613,23.187l-4.229,2.229c-0.457-0.951-1.021-1.619-1.686-2
	c-0.669-0.38-1.308-0.571-1.914-0.571c-2.857,0-4.287,1.885-4.287,5.657c0,1.714,0.362,3.084,1.086,4.113s1.789,1.544,3.201,1.544
	c1.864,0,3.18-0.915,3.94-2.743l4,2c-0.875,1.563-2.057,2.791-3.541,3.686c-1.485,0.896-3.104,1.344-4.856,1.344
	c-2.896,0-5.209-0.875-6.94-2.629c-1.736-1.752-2.603-4.19-2.603-7.313c0-3.048,0.885-5.466,2.657-7.257
	c1.771-1.79,4.009-2.686,6.713-2.686C51.117,18.558,53.938,20.101,55.613,23.187z"/>
</svg>
